<svg width="52" height="52" viewBox="0 0 52 52" fill="none" xmlns="http://www.w3.org/2000/svg">
<g clip-path="url(#clip0_206_75)">
<path d="M26 0C19.1044 0 12.4912 2.73928 7.61522 7.61522C2.73928 12.4912 0 19.1044 0 26C0 32.8956 2.73928 39.5088 7.61522 44.3848C12.4912 49.2607 19.1044 52 26 52H52V26C51.9925 19.1067 49.2509 12.4978 44.3765 7.62346C39.5022 2.74913 32.8933 0.00745568 26 0V0ZM26 10.8333C26.6428 10.8333 27.2711 11.0239 27.8056 11.3811C28.3401 11.7382 28.7566 12.2458 29.0026 12.8396C29.2486 13.4335 29.313 14.0869 29.1876 14.7174C29.0622 15.3478 28.7526 15.9269 28.2981 16.3814C27.8436 16.836 27.2645 17.1455 26.634 17.2709C26.0036 17.3963 25.3501 17.3319 24.7563 17.0859C24.1624 16.84 23.6548 16.4234 23.2977 15.8889C22.9406 15.3545 22.75 14.7261 22.75 14.0833C22.75 13.2214 23.0924 12.3947 23.7019 11.7852C24.3114 11.1757 25.138 10.8333 26 10.8333ZM30.3333 41.1667H26V26H21.6667V21.6667H26C27.1493 21.6667 28.2515 22.1232 29.0641 22.9359C29.8768 23.7485 30.3333 24.8507 30.3333 26V41.1667Z" fill="#374957"/>
</g>
<defs>
<clipPath id="clip0_206_75">
<rect width="52" height="52" fill="white"/>
</clipPath>
</defs>
</svg>
